<?xml version="1.0" encoding="utf-8"?>
<!-- Generator: Adobe Illustrator 19.2.1, SVG Export Plug-In . SVG Version: 6.00 Build 0)  -->
<svg version="1.1" id="Layer_1" xmlns="http://www.w3.org/2000/svg" xmlns:xlink="http://www.w3.org/1999/xlink" x="0px" y="0px"
	 width="17.7px" height="19.3px" viewBox="0 0 17.7 19.3" style="enable-background:new 0 0 17.7 19.3;" xml:space="preserve">
<style type="text/css">
	.st0{fill:#010101;}
</style>
<g>
	<path class="st0" d="M8,14.5c0.2,0.2,0.4,0.3,0.7,0.3s0.5-0.1,0.7-0.3l3.5-3.4c0.4-0.4,0.4-1,0-1.4s-1-0.4-1.4,0l-1.8,1.8V2.7
		c0-0.6-0.4-1-1-1s-1,0.4-1,1v8.7L5.8,9.6c-0.4-0.4-1-0.4-1.4,0s-0.4,1,0,1.4L8,14.5z"/>
	<path class="st0" d="M15.5,15.8H1.9c-0.6,0-1,0.4-1,1s0.4,1,1,1h13.5c0.6,0,1-0.4,1-1S16,15.8,15.5,15.8z"/>
</g>
</svg>
