<svg xmlns:sketch="http://www.bohemiancoding.com/sketch/ns" xmlns="http://www.w3.org/2000/svg" xmlns:xlink="http://www.w3.org/1999/xlink" version="1.1" x="0px" y="0px" viewBox="0 0 44 55" enable-background="new 0 0 44 44" xml:space="preserve"><title>pen_pencil_edit_write</title><description>Created with Sketch (http://www.bohemiancoding.com/sketch)</description><path fill-rule="evenodd" clip-rule="evenodd" d="M42.352,7.677l-2.853,2.851c-0.332,0.337-0.877,0.337-1.214,0l-4.826-4.826  c-0.339-0.337-0.339-0.882,0-1.219L36.31,1.63c0.756-0.756,1.979-0.756,2.736,0l3.306,3.309C43.105,5.696,43.105,6.919,42.352,7.677  z M37.251,12.547L21.467,28.342c-0.333,0.564-0.877,0.564-1.214,0.23l-4.827-4.827c-0.336-0.339-0.336-0.882,0-1.219L31.21,6.733  c0.337-0.334,0.878-0.334,1.215,0l4.826,4.829C37.589,11.898,37.589,12.444,37.251,12.547z M18.788,30.571l-6.848,2.347  l-0.127,0.044c-0.209,0.048-0.438-0.01-0.602-0.173c-0.163-0.164-0.22-0.392-0.169-0.602l0.042-0.126l2.346-6.852l0.043-0.127  c0.028-0.067,0.074-0.131,0.127-0.186c0.251-0.251,0.662-0.251,0.914,0l4.587,4.589c0.25,0.254,0.25,0.66,0,0.912  c-0.057,0.058-0.117,0.1-0.185,0.129L18.788,30.571z M23.442,8.299H5.411v30.293h30.293V20.561c0-1.196,0.97-2.164,2.164-2.164  s2.164,0.968,2.164,2.164v20.196c0,0.299-0.061,0.583-0.171,0.843c-0.328,0.775-1.098,1.321-1.993,1.321l0,0H3.247  c-1.195,0-2.164-0.97-2.164-2.164V6.136c0-1.195,0.969-2.164,2.164-2.164h20.195c1.194,0,2.164,0.969,2.164,2.164  C25.606,7.33,24.637,8.299,23.442,8.299z"/></svg>