<svg xmlns="http://www.w3.org/2000/svg" xmlns:xlink="http://www.w3.org/1999/xlink" version="1.1" x="0px" y="0px" viewBox="0 0 100 125" enable-background="new 0 0 100 100" xml:space="preserve"><g><path d="M68,96c-3.313,0-6-2.687-6-6V68c0-3.313,2.687-6,6-6h22c3.313,0,6,2.687,6,6s-2.687,6-6,6H74v16C74,93.313,71.313,96,68,96   z"/></g><g><path d="M32,96c-3.313,0-6-2.687-6-6V74H10c-3.313,0-6-2.687-6-6s2.687-6,6-6h22c3.313,0,6,2.687,6,6v22C38,93.313,35.313,96,32,96   z"/></g><g><path d="M32,38H10c-3.313,0-6-2.687-6-6s2.687-6,6-6h16V10c0-3.313,2.687-6,6-6s6,2.687,6,6v22C38,35.313,35.313,38,32,38z"/></g><g><path d="M90,38H68c-3.313,0-6-2.687-6-6V10c0-3.313,2.687-6,6-6s6,2.687,6,6v16h16c3.313,0,6,2.687,6,6S93.313,38,90,38z"/></g></svg>