<svg xmlns="http://www.w3.org/2000/svg" xmlns:xlink="http://www.w3.org/1999/xlink" version="1.1" x="0px" y="0px" viewBox="0 0 100 125" enable-background="new 0 0 100 100" xml:space="preserve"><g><path d="M90,96H68c-3.313,0-6-2.687-6-6s2.687-6,6-6h16V68c0-3.313,2.687-6,6-6s6,2.687,6,6v22C96,93.313,93.313,96,90,96z"/></g><g><path d="M32,96H10c-3.313,0-6-2.687-6-6V68c0-3.313,2.687-6,6-6s6,2.687,6,6v16h16c3.313,0,6,2.687,6,6S35.313,96,32,96z"/></g><g><path d="M10,38c-3.313,0-6-2.687-6-6V10c0-3.313,2.687-6,6-6h22c3.313,0,6,2.687,6,6s-2.687,6-6,6H16v16C16,35.313,13.313,38,10,38   z"/></g><g><path d="M90,38c-3.313,0-6-2.687-6-6V16H68c-3.313,0-6-2.687-6-6s2.687-6,6-6h22c3.313,0,6,2.687,6,6v22C96,35.313,93.313,38,90,38   z"/></g></svg>