<svg xmlns="http://www.w3.org/2000/svg" xmlns:xlink="http://www.w3.org/1999/xlink" version="1.1" x="0px" y="0px" viewBox="0 0 100 125" enable-background="new 0 0 100 100" xml:space="preserve"><path d="M3.5,53.6l12.2,4.2c0.2,0.1,0.4,0.1,0.6,0.1c0.3,0,0.5-0.1,0.7-0.2c0.4-0.2,0.7-0.5,0.9-1l9.7-28.2l0.7,0.3  c2.4,0.9,5.1,0.7,7.4-0.4l1.2-0.6c1.5-0.7,3.2-0.8,4.8-0.3l22.5,7.8c-0.2,0.9-0.7,2.1-1.6,2.7c-1,0.7-2.4,0.7-4.3,0l-10-3.4  c-0.4-0.2-0.9-0.1-1.4,0.1c-0.4,0.2-0.7,0.6-0.8,1.1c0,0.1-1.4,5.3-5.8,7.7c-2.8,1.5-6.3,1.6-10.4,0.2c-0.9-0.3-1.9,0.2-2.2,1.1  c-0.3,0.9,0.2,1.9,1.1,2.2c2.3,0.8,4.5,1.2,6.6,1.2c2.4,0,4.5-0.5,6.5-1.6c4-2.1,6-5.9,6.9-8.1l8.4,2.9c3,1,5.4,0.9,7.4-0.5  c3.1-2.1,3.2-6.4,3.2-6.6c0-0.7-0.4-1.4-1.1-1.7l-23.8-8.2c-2.4-0.8-5.1-0.7-7.4,0.5l-1.2,0.6c-1.5,0.7-3.2,0.8-4.8,0.3l-2-0.7  c-0.1-0.1-0.2-0.1-0.3-0.2l-12.2-4.2c-0.4-0.1-0.9-0.1-1.3,0.1c-0.4,0.2-0.7,0.5-0.9,1L2.4,51.4c-0.1,0.4-0.1,0.9,0.1,1.3  C2.7,53.1,3.1,53.4,3.5,53.6z M15.4,24.2l9,3.1L15.2,54l-9-3.1L15.4,24.2z M13.9,49.8c-0.4,1.1-1.6,1.7-2.7,1.3  c-1.1-0.4-1.7-1.6-1.3-2.7c0.4-1.1,1.6-1.7,2.7-1.3C13.7,47.4,14.3,48.6,13.9,49.8z M82.2,55.9L78,59.8c-3.8,3.5-8.1,6.4-12.7,8.7  L43.1,79.4c-0.5,0.2-1,0.3-1.6,0.1c-0.5-0.2-0.9-0.5-1.2-1c-0.2-0.5-0.3-1-0.1-1.6c0.2-0.5,0.5-0.9,1-1.2l12.4-6.1  c0.8-0.4,1.2-1.4,0.8-2.3c-0.4-0.8-1.4-1.2-2.3-0.8L40,72.5c0,0,0,0,0,0l-6.1,3c-1,0.5-2.2,0.1-2.7-0.9c-0.5-1-0.1-2.2,0.9-2.7  l1.3-0.6l3.3-1.6l0,0L50,63.1c0.8-0.4,1.2-1.4,0.8-2.3c-0.4-0.8-1.4-1.2-2.3-0.8l-16.5,8.1l-1.3,0.6c0,0,0,0,0,0l-2.2,1.1  c-0.5,0.2-1,0.3-1.6,0.1c-0.5-0.2-0.9-0.5-1.2-1c-0.2-0.5-0.3-1-0.1-1.6c0.2-0.5,0.5-0.9,1-1.2l2.2-1.1c0,0,0,0,0,0l16-7.8  c0.8-0.4,1.2-1.4,0.8-2.3c-0.4-0.8-1.4-1.2-2.3-0.8l-10.3,5c0,0,0,0,0,0l-5.7,2.8c-0.5,0.2-1,0.3-1.6,0.1c-0.5-0.2-0.9-0.5-1.2-1  c-0.2-0.5-0.3-1-0.1-1.6c0.2-0.5,0.5-0.9,1-1.2l8.5-4.1c0.8-0.4,1.2-1.4,0.8-2.3s-1.4-1.2-2.3-0.8l-8.5,4.1  c-1.3,0.6-2.3,1.7-2.8,3.1c-0.5,1.4-0.4,2.9,0.3,4.2c0.4,0.8,1,1.5,1.7,2c-0.4,0.5-0.7,1-0.9,1.6c-0.5,1.4-0.4,2.9,0.3,4.2  c0.6,1.3,1.7,2.3,3.1,2.8c0.6,0.2,1.2,0.3,1.8,0.3c0,0,0,0,0,0c0,0.9,0.1,1.8,0.5,2.6c0.9,1.9,2.9,3.1,4.9,3.1  c0.8,0,1.6-0.2,2.4-0.6l1.3-0.6c0,0.7,0.2,1.4,0.5,2c0.6,1.3,1.7,2.3,3.1,2.8c0.6,0.2,1.2,0.3,1.8,0.3c0.8,0,1.6-0.2,2.4-0.6  l22.2-10.9c4.9-2.4,9.5-5.5,13.5-9.2l5-4.6l11.4-5.6c0.8-0.4,1.2-1.4,0.8-2.3L83.6,21.5c-0.4-0.8-1.4-1.2-2.3-0.8l-11.6,5.7  c-0.4,0.2-0.7,0.5-0.9,1c-0.1,0.4-0.1,0.9,0.1,1.3L82.2,55.9z M81.3,24.5l12.4,25.3L85.1,54L72.7,28.7L81.3,24.5z M86.1,49.7  c-0.5-1-0.1-2.2,0.9-2.7c1-0.5,2.2-0.1,2.7,0.9c0.5,1,0.1,2.2-0.9,2.7C87.8,51.2,86.6,50.7,86.1,49.7z"/><text x="0" y="115" fill="#000000" font-size="5px" font-weight="bold" font-family="'Helvetica Neue', Helvetica, Arial-Unicode, Arial, Sans-serif">Created by Gregor Črešnar</text><text x="0" y="120" fill="#000000" font-size="5px" font-weight="bold" font-family="'Helvetica Neue', Helvetica, Arial-Unicode, Arial, Sans-serif">from the Noun Project</text></svg>