<svg xmlns="http://www.w3.org/2000/svg" xmlns:xlink="http://www.w3.org/1999/xlink" version="1.1" x="0px" y="0px" viewBox="0 0 100 125" enable-background="new 0 0 100 100" xml:space="preserve"><g><path d="M43.479,23.432c-0.623-0.327-1.377-0.281-1.957,0.117L24.088,35.56H6.896C5.849,35.56,5,36.409,5,37.455v25.708   c0,1.048,0.849,1.896,1.896,1.896h17.217L41.56,76.477c0.314,0.205,0.675,0.31,1.038,0.31c0.31,0,0.619-0.075,0.901-0.228   c0.613-0.33,0.994-0.973,0.994-1.668V25.11C44.493,24.405,44.103,23.76,43.479,23.432z"/><path d="M58.6,35.73c-1.231-1.232-3.232-1.232-4.467,0c-1.232,1.234-1.232,3.234,0,4.467c5.406,5.406,5.406,14.202,0,19.606   c-1.232,1.233-1.232,3.233,0,4.467c0.617,0.616,1.426,0.926,2.234,0.926c0.808,0,1.615-0.309,2.232-0.926   C66.469,56.4,66.469,43.599,58.6,35.73z"/><path d="M68.661,24.881c-1.233-1.233-3.233-1.233-4.466,0c-1.234,1.233-1.234,3.232,0,4.466c11.389,11.388,11.389,29.918,0,41.305   c-1.234,1.233-1.234,3.233,0,4.467c0.615,0.617,1.426,0.926,2.232,0.926s1.616-0.309,2.232-0.926   C75.371,68.41,79.066,59.49,79.066,50C79.066,40.511,75.371,31.59,68.661,24.881z"/><path d="M79.882,14.942c-1.233-1.233-3.233-1.233-4.466,0s-1.232,3.233,0,4.466C83.586,27.58,88.087,38.444,88.087,50   c0.001,11.557-4.501,22.421-12.671,30.592c-1.232,1.233-1.232,3.232,0,4.467c0.617,0.617,1.426,0.926,2.232,0.926   c0.808,0,1.617-0.31,2.232-0.926C89.246,75.693,94.404,63.242,94.404,50C94.404,36.757,89.246,24.307,79.882,14.942z"/></g></svg>