<svg xmlns="http://www.w3.org/2000/svg" xmlns:xlink="http://www.w3.org/1999/xlink" version="1.1" x="0px" y="0px" viewBox="0 0 100 125" style="enable-background:new 0 0 100 100;" xml:space="preserve"><g><path d="M51.4,67.1l-8.8,8.8c-2.2,2.2-5.1,3.4-8.2,3.4c-3.1,0-6-1.2-8.2-3.4l-2.8-2.8C21.2,70.9,20,68,20,64.9s1.2-6,3.4-8.2   L35.1,45c4.5-4.5,11.9-4.5,16.4,0l4.2,4.2c1.6,1.6,4.1,1.6,5.7,0c1.6-1.6,1.6-4.1,0-5.7l-4.2-4.2c-7.6-7.6-20.1-7.6-27.7,0L17.7,51   C14,54.7,12,59.6,12,64.9s2,10.1,5.7,13.8l2.8,2.8c3.7,3.7,8.6,5.7,13.8,5.7c5.2,0,10.1-2,13.8-5.7l8.8-8.8c1.6-1.6,1.6-4.1,0-5.7   C55.5,65.5,53,65.5,51.4,67.1z"/><path d="M79.7,16.7C76,13,71.1,11,65.9,11c-5.2,0-10.1,2-13.8,5.7l-7.4,7.4c-1.6,1.6-1.6,4.1,0,5.7c1.6,1.6,4.1,1.6,5.7,0l7.4-7.4   c2.2-2.2,5.1-3.4,8.2-3.4c3.1,0,6,1.2,8.2,3.4l2.8,2.8c2.2,2.2,3.4,5.1,3.4,8.2s-1.2,6-3.4,8.2L66.7,51.8c-2.2,2.2-5.1,3.4-8.2,3.4   c-3.1,0-6-1.2-8.2-3.4l-4.2-4.2c-1.6-1.6-4.1-1.6-5.7,0s-1.6,4.1,0,5.7l4.2,4.2c3.7,3.7,8.6,5.7,13.8,5.7c5.2,0,10.1-2,13.8-5.7   l10.2-10.2c3.7-3.7,5.7-8.6,5.7-13.8s-2-10.1-5.7-13.8L79.7,16.7z"/></g></svg>