<svg xmlns="http://www.w3.org/2000/svg" xmlns:xlink="http://www.w3.org/1999/xlink" version="1.1" x="0px" y="0px" viewBox="0 0 100 125" enable-background="new 0 0 100 100" xml:space="preserve"><g><path d="M43.479,23.432c-0.623-0.327-1.377-0.281-1.957,0.117L24.087,35.56H6.895C5.849,35.56,5,36.409,5,37.455v25.708   c0,1.048,0.849,1.896,1.895,1.896h17.217L41.56,76.477c0.314,0.205,0.676,0.31,1.038,0.31c0.31,0,0.62-0.075,0.902-0.228   c0.611-0.332,0.993-0.973,0.993-1.668V25.109C44.493,24.405,44.102,23.759,43.479,23.432z"/><path d="M58.6,35.73c-1.232-1.232-3.233-1.232-4.467,0c-1.234,1.233-1.234,3.234,0,4.467c5.405,5.405,5.405,14.2,0,19.606   c-1.234,1.232-1.234,3.232,0,4.467c0.616,0.616,1.424,0.926,2.233,0.926c0.809,0,1.616-0.309,2.233-0.926   C66.469,56.4,66.469,43.599,58.6,35.73z"/></g></svg>