<svg xmlns="http://www.w3.org/2000/svg" xmlns:xlink="http://www.w3.org/1999/xlink" version="1.1" x="0px" y="0px" viewBox="0 0 100 125" enable-background="new 0 0 100 100" xml:space="preserve"><path d="M57.757,21.273c-1.366-1.083-3.354-0.854-4.437,0.512l-8.828,11.127v-7.84c0-0.704-0.39-1.35-1.014-1.678  c-0.623-0.327-1.376-0.281-1.956,0.118L24.087,35.523H6.895C5.847,35.523,5,36.372,5,37.418v25.708c0,1.046,0.847,1.896,1.895,1.896  h12.126l-8.866,11.177c-1.084,1.364-0.855,3.353,0.512,4.437c0.581,0.461,1.274,0.686,1.961,0.686c0.931,0,1.853-0.409,2.476-1.195  l10.964-13.82L41.56,76.439c0.314,0.205,0.675,0.31,1.038,0.31c0.309,0,0.619-0.075,0.9-0.228c0.612-0.332,0.994-0.973,0.994-1.668  V43.077l13.775-17.366C59.354,24.345,59.124,22.358,57.757,21.273z"/></svg>