<?xml version="1.0" encoding="utf-8"?>
<!-- Generator: Adobe Illustrator 19.2.1, SVG Export Plug-In . SVG Version: 6.00 Build 0)  -->
<svg version="1.1" id="Layer_1" xmlns="http://www.w3.org/2000/svg" xmlns:xlink="http://www.w3.org/1999/xlink" x="0px" y="0px"
	 width="72.2px" height="87.5px" viewBox="0 0 72.2 87.5" style="enable-background:new 0 0 72.2 87.5;" xml:space="preserve">
<style type="text/css">
	.st0{stroke:#000000;stroke-width:2;stroke-miterlimit:10;}
</style>
<path class="st0" d="M36.1,44.6c4.7,0,8.4-3.8,8.4-8.4c0-4.7-3.8-8.4-8.4-8.4s-8.4,3.8-8.4,8.4C27.7,40.8,31.5,44.6,36.1,44.6z
	 M36.1,29.6c3.6,0,6.5,2.9,6.5,6.5c0,3.6-2.9,6.5-6.5,6.5s-6.5-2.9-6.5-6.5C29.6,32.5,32.5,29.6,36.1,29.6z M57.6,35.9
	c0-11.8-9.6-21.4-21.4-21.4s-21.4,9.6-21.4,21.4c0,4.6,1.4,9,4.2,12.7c0.2,0.3,0.5,0.4,0.8,0.4c0.2,0,0.4-0.1,0.6-0.2
	c0.4-0.3,0.5-0.9,0.2-1.3c-2.5-3.4-3.8-7.4-3.8-11.6c0-10.8,8.8-19.5,19.5-19.5s19.5,8.8,19.5,19.5c0,4-1.3,8.1-3.8,11.6
	c-0.3,0.4-0.2,1,0.2,1.3c0.4,0.3,1,0.2,1.3-0.2C56.1,44.8,57.6,40.3,57.6,35.9z M36.1,2.6C17.8,2.6,2.9,17.6,2.9,35.9
	c0,11.2,5.6,21.5,14.9,27.7c0.4,0.3,1,0.2,1.3-0.3c0.3-0.4,0.2-1-0.3-1.3c-8.8-5.8-14-15.6-14-26.1c0-17.3,14.1-31.4,31.4-31.4
	s31.4,14.1,31.4,31.4c0,10.5-5.2,20.3-14,26.1c-0.4,0.3-0.6,0.9-0.3,1.3c0.2,0.3,0.5,0.4,0.8,0.4c0.2,0,0.4-0.1,0.5-0.2
	c9.3-6.2,14.9-16.6,14.9-27.7C69.4,17.6,54.5,2.6,36.1,2.6z M39.8,47.5h-7.4c-3.2,0-5.9,2.6-5.9,5.9v13.2c0,2.4,1.5,4.6,3.7,5.4v8.8
	c0,2.1,1.7,3.8,3.8,3.8h4.2c2.1,0,3.8-1.7,3.8-3.8v-8.8c2.2-0.9,3.7-3,3.7-5.4V53.4C45.7,50.1,43.1,47.5,39.8,47.5z M43.8,66.5
	c0,1.8-1.2,3.4-3,3.8c-0.4,0.1-0.7,0.5-0.7,0.9v9.5c0,1-0.8,1.9-1.9,1.9H34c-1,0-1.9-0.8-1.9-1.9v-9.5c0-0.4-0.3-0.8-0.7-0.9
	c-1.8-0.4-3-2-3-3.8V53.4c0-2.2,1.8-4,4-4h7.4c2.2,0,4,1.8,4,4L43.8,66.5L43.8,66.5z"/>
</svg>
